<?xml version="1.0" encoding="utf-8"?>
<!-- Generator: Adobe Illustrator 22.0.1, SVG Export Plug-In . SVG Version: 6.00 Build 0)  -->
<svg version="1.1" id="Layer_1" xmlns="http://www.w3.org/2000/svg" xmlns:xlink="http://www.w3.org/1999/xlink" x="0px" y="0px"
	 viewBox="0 0 64 64" style="enable-background:new 0 0 64 64;" xml:space="preserve">
<path d="M62.8,20L33.5,0.5c-1-0.6-2.1-0.6-3.1,0L1.2,20C0.5,20.5,0,21.4,0,22.2v19.5c0,0.9,0.5,1.8,1.2,2.3l29.2,19.5
	c1,0.6,2.1,0.6,3.1,0L62.8,44c0.7-0.5,1.2-1.4,1.2-2.3V22.2C64,21.4,63.5,20.5,62.8,20L62.8,20z M34.7,7.9l21.5,14.4l-9.6,6.4
	l-11.9-8V7.9z M29.2,7.9v12.8l-11.9,8l-9.6-6.4L29.2,7.9z M5.5,27.4l6.9,4.6l-6.9,4.6V27.4L5.5,27.4z M29.2,56.1L7.7,41.7l9.6-6.4
	l11.9,8V56.1z M32,38.5L22.3,32l9.7-6.5l9.7,6.5L32,38.5z M34.7,56.1V43.3l11.9-8l9.6,6.4L34.7,56.1z M58.5,36.6L51.6,32l6.9-4.6
	V36.6L58.5,36.6z"/>
</svg>
