<?xml version="1.0" ?><!DOCTYPE svg  PUBLIC '-//W3C//DTD SVG 1.1//EN'  'http://www.w3.org/Graphics/SVG/1.1/DTD/svg11.dtd'><svg enable-background="new 0 0 512 512" height="512px" id="elephant" version="1.1" viewBox="0 0 512 512" width="512px" xml:space="preserve" xmlns="http://www.w3.org/2000/svg" xmlns:xlink="http://www.w3.org/1999/xlink"><g><circle cx="146.995" cy="183.489" r="6.829"/><path d="M40.685,111.8h5.068v99.809c0,27.32,22.147,49.467,49.468,49.467h24.529c-7.145,3.611-14.433,6.209-21.788,7.758   c-3.851,0.813-11.02,2.322-12.461,8.408c-0.865,3.656,0.728,7.129,4.734,10.322c2.459,1.959,8.279,4.262,17.045,4.262   c12.461,0,30.878-4.66,54.042-21.576c1.504,0.096,3.038,0.172,4.635,0.207c3.348,3.074,7.273,5.551,11.647,7.32l18.894,76.004   l-5.017,70.82h-2.22c-3.59,0-6.5,2.91-6.5,6.5s2.91,6.5,6.5,6.5h41.623l9.278-62.598l12.261,49.602h-1.433   c-3.59,0-6.5,2.91-6.5,6.5s2.91,6.5,6.5,6.5h44.276l-10.484-89.193c4.242-4.691,7.689-10.016,10.252-15.721   c9.559,2.744,24.639,6.422,49.652,6.422c5.758,0,11.506-0.398,17.164-1.17c3.176,6.293,7.346,11.449,12.473,15.328   c6.609,5.002,10.523,12.33,10.855,20.238l-18.834,51.086h-3.229c-3.59,0-6.5,2.91-6.5,6.5s2.91,6.5,6.5,6.5h35.77v0.008h53.43   v-41.449l10.367-63.436v32.961c0,12.328,8.068,22.807,19.201,26.436c4.232,1.379,8.592-1.713,8.592-6.164   c0-2.846-1.863-5.318-4.57-6.199c-5.928-1.93-10.223-7.51-10.223-14.072V261.578c0-24.411-9.508-47.368-26.775-64.644   c-16.516-16.515-42.441-26.774-67.662-26.774h-89.945c-3.59,0-6.5,2.91-6.5,6.5s2.91,6.5,6.5,6.5h89.945   c21.898,0,44.305,8.8,58.469,22.965c14.813,14.82,22.969,34.513,22.969,55.453c0,15.213-2.148,30.34-6.383,44.957l-5.646,19.473   L439.316,395.1v29.504h-14.617v-59.791c0-12.211-5.787-23.539-15.875-31.074c-4.508-3.375-8.242-7.965-11.104-13.648   c-2.262-4.48-3.996-9.754-5.016-15.262c-0.676-3.615-0.855-6.295-0.9-7.279l-0.006-0.123c-0.072-1.357-0.525-2.684-1.373-3.746   c-2.242-2.814-5.92-3.434-8.736-1.924l-0.863,0.455c-6.936,3.66-18.541,9.783-43.436,9.783c-9.049,0-16.846-1.486-23.842-4.549   c-8.01-3.5-13.662-7.625-17.047-10.512c-2.422-2.025-5.824-2.223-8.469-0.486c-2.643,1.734-3.814,4.939-2.902,8.021   c1.883,6.172,3.465,15.826,0.314,26.777c-2.754,9.596-8.076,16.328-12.057,20.287l-2.24,2.229l9.502,80.844h-14.834l-18.81-76.1   c11.082-13.494,17.738-29.928,19.146-47.299c0.307-3.764-2.715-6.971-6.49-6.971c-3.393,0-6.195,2.613-6.472,5.996   c-1.332,16.227-8.051,31.494-19.255,43.51l-2.71,2.908l-11.555,77.951h-15.156l5.098-71.957l-17.926-72.105   c6.247-0.064,12.406-1.816,17.969-5.211c8.752-5.338,14.915-14.199,16.907-24.313c1.351-6.852,4.659-16.874,12.752-25.713   c3.894-4.252,8.493-7.821,13.671-10.606c9.31-5.008,15.947-13.531,18.205-23.382c2.67-11.656,1.121-23.908-4.365-34.5   c-8.705-16.811-25.874-27.254-44.805-27.254h-44.993l-7.062,0.022c-38.098,0-69.092,30.998-69.092,69.1v10.082   c0,5.18-4.035,9.425-8.995,9.462c-2.578,0.04-5.016-1.037-6.771-2.955c-1.584-1.731-2.366-4.052-2.366-6.399V107.767   c0-18.431-14.941-33.372-33.372-33.372h-9.143c-10.553,0-19.091,8.785-18.688,19.425C21.919,103.94,30.557,111.8,40.685,111.8z    M411.699,424.604h-3.391l3.391-8.9V424.604z M389.049,331.098c3.314,5.184,7.328,9.563,11.99,13.051   c6.775,5.063,10.66,12.594,10.66,20.664v14.379l-17.301,45.404h-14.197l18.002-48.828v-1.16c0-12.434-5.844-23.988-16.033-31.703   c-2.631-1.988-4.918-4.525-6.863-7.553C379.869,334.211,384.428,332.797,389.049,331.098z M300.152,305.252   c2.457,1.4,5.186,2.791,8.188,4.104c8.668,3.795,18.17,5.639,29.051,5.639c21.051,0,34.139-4.115,42.525-7.84   c0.002,0.018,0.006,0.035,0.01,0.053c0.789,4.262,1.904,8.332,3.328,12.168c-5.766,2.049-11.414,3.602-17.117,4.701   c-6.994,1.352-14.211,2.037-21.449,2.037c-22.854,0-36.756-3.273-45.65-5.799C300.141,314.922,300.402,309.838,300.152,305.252z    M111.06,278.744c8.992-2.965,17.812-7.301,26.349-12.93c1.497,0.498,3.127,0.986,4.888,1.451   C129.134,275.053,118.591,277.998,111.06,278.744z M40.225,87.395h9.143c11.251,0,20.372,9.121,20.372,20.372v100.912   c0,5.706,1.996,11.3,5.878,15.48c4.268,4.596,10.153,7.116,16.357,7.067c12.074-0.091,21.897-10.167,21.897-22.462v-10.082   c0-30.934,25.163-56.1,56.112-56.1l7.062-0.022h44.973c14.267,0,26.701,7.563,33.263,20.233c4.07,7.861,5.22,16.958,3.236,25.617   c-1.42,6.197-5.682,11.605-11.691,14.838c-6.467,3.479-12.22,7.945-17.101,13.276c-8.017,8.755-13.521,19.813-15.918,31.978   c-1.291,6.548-5.271,12.281-10.924,15.729c-5.413,3.303-11.697,4.17-17.698,2.439c-9.144-2.637-15.837-9.701-18.014-18.967v-14.937   c0-3.59-2.91-6.5-6.5-6.5s-6.5,2.91-6.5,6.5v16.328l0.14,0.663c0.514,2.437,1.233,4.776,2.144,7.001   c-16.194-2.002-24.273-7.432-24.336-7.475l-1.693-1.207H95.221c-20.141,0-36.468-16.327-36.468-36.468V109.242   c0-5.767-4.675-10.442-10.442-10.442h-7.887c-2.898,0-5.484-2.078-5.854-4.952C34.125,90.371,36.833,87.395,40.225,87.395z"/><path d="M163.075,211.526h5.498c19.973,0,36.655-14.362,40.261-33.302c0.76-3.99-2.338-7.681-6.399-7.681   c-3.148,0-5.792,2.266-6.394,5.356c-2.506,12.876-13.869,22.626-27.468,22.626h-5.498c-3.59,0-6.5,2.91-6.5,6.5   S159.485,211.526,163.075,211.526z"/><path d="M253.435,268.334v6.107c0,3.59,2.91,6.5,6.5,6.5c3.59,0,6.5-2.91,6.5-6.5v-6.107c0-3.59-2.91-6.5-6.5-6.5   C256.345,261.834,253.435,264.744,253.435,268.334z"/></g></svg>