<svg id="Layer_3" enable-background="new 0 0 64 64" height="512" viewBox="0 0 64 64" width="512" xmlns="http://www.w3.org/2000/svg"><g><path d="m58.109 44.361c-.943-1.414-2.494-2.274-4.182-2.347-.311-3.55-1.743-6.859-4.109-9.538.764-1.051 1.182-2.308 1.182-3.632 0-.667-.107-1.327-.318-1.962l-.267-.802c.726.184 1.344.673 1.691 1.367.181.362.566.573.965.55.404-.029.75-.298.878-.682.697-2.092 1.051-4.272 1.051-6.477v-.22l.553.276c.31.154.678.138.973-.044.294-.182.474-.503.474-.85 0-3.986-1.334-7.897-3.764-11.051l1.596-2.394c.173-.259.215-.584.114-.879-.101-.294-.334-.525-.63-.624-2.084-.695-4.253-1.049-6.447-1.052l.963-1.445c.205-.307.224-.701.05-1.026-.174-.326-.513-.529-.882-.529h-1c-3.193 0-6.361.98-9 2.772-2.639-1.792-5.807-2.772-9-2.772h-1c-.369 0-.708.203-.882.528s-.155.72.05 1.026l.963 1.446c-2.195.003-4.364.357-6.447 1.051-.296.099-.529.33-.63.624-.101.295-.059.62.114.879l1.596 2.394c-2.43 3.155-3.764 7.066-3.764 11.052 0 .347.18.668.474.851.295.182.664.198.973.044l.553-.277v.22c0 2.206.354 4.385 1.051 6.478.128.384.474.653.878.682.399.023.784-.188.965-.55.347-.693.965-1.183 1.691-1.367l-.267.802c-.211.634-.318 1.294-.318 1.961 0 1.324.418 2.581 1.182 3.632-2.367 2.679-3.798 5.988-4.109 9.538-1.688.073-3.239.933-4.182 2.347-.025.037-.042.078-.066.116-3.595-3.482-5.903-8.054-6.597-12.973l1.302-.651c1.523-.762 2.47-2.293 2.47-3.997 0-1.497-.744-2.887-1.99-3.718-.731-.487-1.251-1.225-1.464-2.078l-.576-2.303c-.111-.445-.511-.757-.97-.757s-.859.312-.97.757l-.576 2.303c-.213.853-.733 1.59-1.464 2.078-1.246.831-1.99 2.221-1.99 3.718 0 1.704.947 3.235 2.47 3.997l1.53.765v7.136c0 5.956 3.292 10.664 8.411 12.114.36.871.942 1.647 1.71 2.224l1.563 1.172c.198.148.316.383.316.631 0 .301-.167.571-.458.717-.951.475-1.542 1.43-1.542 2.493v.105c0 1.539 1.251 2.79 2.789 2.79h3.532c.543 1.177 1.727 2 3.106 2h5.744c2.112 0 3.829-1.717 3.829-3.829 0-1.022-.398-1.984-1.122-2.707-1.211-1.211-1.878-2.822-1.878-4.535v-.342c0-1.18-.222-2.335-.661-3.431-.987-2.467-2.439-4.67-4.318-6.548l-.314-.314-1.414 1.414.314.314c1.686 1.686 2.989 3.663 3.875 5.876.344.859.518 1.764.518 2.689v.342c0 2.248.875 4.361 2.464 5.95.346.345.536.804.536 1.292 0 1.009-.82 1.829-1.829 1.829h-.171v-2h-2v2h-1v-2h-2v2h-.573c-.787 0-1.427-.64-1.427-1.427 0-.22.052-.441.151-.638l.487-.975c.237-.475.362-1.004.362-1.533 0-1.792-.616-3.548-1.735-4.947-1.461-1.826-2.265-4.119-2.265-6.456v-1.526c0-3.567 1.275-6.932 3.589-9.6.957.738 2.064 1.253 3.261 1.492 1.787.358 3.502 1.125 4.959 2.217l1.591 1.193c.178.133.389.2.6.2s.422-.067.6-.2l1.59-1.192c1.458-1.093 3.173-1.86 4.959-2.218 1.197-.239 2.305-.754 3.261-1.492 2.315 2.668 3.589 6.033 3.589 9.6v1.526c0 2.337-.804 4.63-2.265 6.456-1.118 1.399-1.734 3.156-1.734 4.947 0 .528.125 1.058.362 1.533l.487.974c.099.198.151.419.151.639 0 .787-.64 1.427-1.427 1.427h-.573v-2h-2v2h-1v-2h-2v2h-.171c-1.009 0-1.829-.82-1.829-1.829 0-.488.19-.947.536-1.293 1.589-1.588 2.464-3.702 2.464-5.949v-.342c0-.925.174-1.83.518-2.689.885-2.213 2.188-4.19 3.875-5.876l.314-.314-1.414-1.414-.314.314c-1.878 1.878-3.331 4.082-4.318 6.548-.439 1.096-.661 2.251-.661 3.431v.342c0 1.713-.667 3.324-1.878 4.536-.724.723-1.122 1.684-1.122 2.706 0 2.112 1.717 3.829 3.829 3.829h5.744c1.379 0 2.563-.823 3.106-2h3.532c1.538 0 2.789-1.251 2.789-2.789v-.105c0-1.063-.591-2.019-1.564-2.505-.269-.135-.436-.406-.436-.706 0-.247.118-.483.315-.631l1.563-1.173c1.329-.997 2.122-2.583 2.122-4.242v-1.546c0-1.05-.308-2.067-.891-2.942zm-49.744-15.297c-.842-.42-1.365-1.267-1.365-2.208 0-.827.411-1.595 1.099-2.054.823-.548 1.475-1.299 1.901-2.173.426.874 1.078 1.625 1.901 2.173.688.459 1.099 1.227 1.099 2.054 0 .941-.523 1.787-1.365 2.208l-.608.304c-.015-.332-.027-.664-.027-.998v-1.37h-2v1.37 1.012zm2.635 9.69v-.724c1.375 3.193 3.429 6.087 6.063 8.465-.04.266-.063.536-.063.808v1.313c-3.682-1.495-6-5.223-6-9.862zm13.703 13.976c.837 1.045 1.297 2.358 1.297 3.697 0 .22-.052.441-.151.638l-.487.975c-.151.301-.238.628-.295.959h-3.278c-.435.001-.789-.353-.789-.788v-.105c0-.301.167-.571.458-.717.951-.476 1.542-1.431 1.542-2.494 0-.873-.417-1.707-1.115-2.231l-1.563-1.172c-.828-.622-1.322-1.61-1.322-2.643v-1.546c0-.654.192-1.288.555-1.832.556-.835 1.458-1.341 2.445-1.433v.986c0 2.79.96 5.526 2.703 7.706zm20.054-19.301c-2.078.416-4.072 1.307-5.767 2.579l-.99.742-.99-.743c-1.695-1.271-3.689-2.163-5.768-2.578-1.144-.229-2.185-.786-3.011-1.611-.793-.795-1.231-1.851-1.231-2.974 0-.452.073-.899.216-1.329l.733-2.199c.102-.305.05-.64-.138-.901s-.49-.415-.811-.415h-.764c-1.028 0-1.995.333-2.779.924-.304-1.339-.457-2.707-.457-4.086v-1.838c0-.347-.18-.668-.474-.851-.295-.182-.664-.198-.973-.044l-.466.233c.32-3.055 1.514-5.989 3.442-8.399l.252-.315c.272-.34.293-.817.051-1.179l-1.247-1.87c1.495-.382 3.029-.575 4.577-.575h1.838c.369 0 .708-.203.882-.528s.155-.72-.05-1.026l-.944-1.417c2.703.175 5.341 1.143 7.512 2.771.355.267.845.267 1.2 0 2.17-1.627 4.809-2.596 7.512-2.771l-.944 1.417c-.205.307-.224.701-.05 1.026s.513.528.882.528h1.838c1.548 0 3.083.193 4.577.575l-1.247 1.87c-.242.362-.221.839.051 1.179l.252.315c1.928 2.41 3.122 5.344 3.442 8.399l-.466-.233c-.31-.154-.679-.138-.973.044s-.474.504-.474.851v1.838c0 1.379-.153 2.748-.457 4.086-.784-.591-1.751-.924-2.779-.924h-.764c-.321 0-.623.154-.811.416-.188.261-.239.596-.138.901l.733 2.198c.143.43.216.877.216 1.33 0 1.123-.438 2.179-1.231 2.973-.826.825-1.867 1.382-3.012 1.611zm12.243 15.42c0 1.034-.494 2.021-1.321 2.642l-1.563 1.173c-.699.524-1.116 1.357-1.116 2.231 0 1.063.591 2.019 1.564 2.505.269.134.436.405.436.705v.105c0 .436-.354.79-.789.79h-3.278c-.057-.332-.144-.658-.295-.96l-.487-.974c-.099-.198-.151-.419-.151-.639 0-1.339.46-2.652 1.297-3.698 1.743-2.179 2.703-4.915 2.703-7.705v-.986c.987.092 1.889.598 2.445 1.433.363.544.555 1.178.555 1.832z"/><path d="m50 18c0-1.006-.195-1.966-.536-2.854.949-.745 1.536-1.896 1.536-3.146 0-2.206-1.794-4-4-4-1.498 0-2.854.841-3.538 2.14-.475-.088-.962-.14-1.462-.14-1.415 0-2.785.37-4 1.075-1.215-.705-2.585-1.075-4-1.075-.5 0-.987.052-1.462.14-.684-1.299-2.04-2.14-3.538-2.14-2.206 0-4 1.794-4 4 0 1.25.587 2.401 1.536 3.146-.341.888-.536 1.848-.536 2.854 0 3.058 1.722 5.794 4.39 7.138-.257.598-.39 1.227-.39 1.862 0 3.309 3.589 6 8 6s8-2.691 8-6c0-.635-.133-1.264-.39-1.862 2.668-1.344 4.39-4.08 4.39-7.138zm-3-8c1.103 0 2 .897 2 2 0 .503-.205.96-.526 1.319-.786-1.084-1.835-1.961-3.055-2.541.372-.48.951-.778 1.581-.778zm-20 2c0-1.103.897-2 2-2 .63 0 1.209.298 1.581.778-1.22.58-2.269 1.457-3.055 2.541-.321-.359-.526-.816-.526-1.319zm10 13.02c.189-.022.503-.021.728-.019l.272.001.272-.001c.225-.002.54-.004.728.019-.009.819-.682 1.94-.997 1.983-.321-.044-.994-1.165-1.003-1.983zm6.867-1.32c-.306.1-.545.342-.643.648-.097.307-.04.642.152.9.414.555.624 1.144.624 1.752 0 1.942-2.204 3.609-5 3.937v-2.22c1.228-.669 2-2.442 2-3.715 0-.596-.179-1.076-.531-1.425-.593-.588-1.415-.578-2.212-.576l-.257.001-.256-.001c-.795-.005-1.62-.013-2.212.576-.353.35-.532.829-.532 1.425 0 1.273.772 3.046 2 3.715v2.22c-2.796-.329-5-1.996-5-3.937 0-.608.21-1.197.624-1.751.192-.258.25-.593.152-.9-.097-.307-.336-.548-.643-.648-2.472-.81-4.133-3.101-4.133-5.701 0-3.309 2.691-6 6-6 1.23 0 2.416.374 3.428 1.08.344.24.801.24 1.145 0 1.011-.706 2.197-1.08 3.427-1.08 3.309 0 6 2.691 6 6 0 2.6-1.661 4.891-4.133 5.7z"/><path d="m33 15c-1.654 0-3 1.346-3 3h2c0-.551.449-1 1-1s1 .449 1 1h2c0-1.654-1.346-3-3-3z"/><path d="m43 15c-1.654 0-3 1.346-3 3h2c0-.551.449-1 1-1s1 .449 1 1h2c0-1.654-1.346-3-3-3z"/></g></svg>